<?xml version="1.0" standalone="no"?>
<!DOCTYPE svg PUBLIC "-//W3C//DTD SVG 20010904//EN"
 "http://www.w3.org/TR/2001/REC-SVG-20010904/DTD/svg10.dtd">
<svg version="1.0" xmlns="http://www.w3.org/2000/svg"
 width="16.000000pt" height="16.000000pt" viewBox="0 0 16.000000 16.000000"
 preserveAspectRatio="xMidYMid meet">

<g transform="translate(0.000000,16.000000) scale(0.100000,-0.100000)"
fill="#7843E9" stroke="none">
<path d="M60 143 c0 -19 29 -35 50 -28 11 3 20 11 20 16 0 7 -6 7 -17 0 -13
-7 -23 -5 -35 6 -10 9 -18 11 -18 6z"/>
<path d="M29 116 c12 -14 11 -19 -4 -36 -10 -11 -13 -20 -8 -20 32 0 43 59 13
68 -13 5 -13 3 -1 -12z"/>
<path d="M120 85 c-13 -15 -5 -55 11 -55 7 0 7 6 0 17 -7 13 -5 23 6 35 9 10
11 18 6 18 -6 0 -16 -7 -23 -15z"/>
<path d="M43 43 c-7 -2 -13 -9 -13 -15 0 -6 6 -5 15 2 13 10 19 10 35 -5 21
-19 28 -7 8 13 -13 13 -24 14 -45 5z"/>
</g>
</svg>
